<mxfile host="app.diagrams.net" agent="Mozilla/5.0 (X11; Linux x86_64) AppleWebKit/537.36 (KHTML, like Gecko) Chrome/131.0.0.0 Safari/537.36" version="26.2.14" pages="2">
  <diagram id="C5RBs43oDa-KdzZeNtuy" name="Page-1">
    <mxGraphModel dx="1240" dy="683" grid="1" gridSize="10" guides="1" tooltips="1" connect="1" arrows="1" fold="1" page="1" pageScale="1" pageWidth="827" pageHeight="1169" math="0" shadow="0">
      <root>
        <mxCell id="WIyWlLk6GJQsqaUBKTNV-0" />
        <mxCell id="WIyWlLk6GJQsqaUBKTNV-1" parent="WIyWlLk6GJQsqaUBKTNV-0" />
        <mxCell id="e14zKmBAGStBbG5pmjRs-1" style="edgeStyle=none;curved=0;rounded=0;orthogonalLoop=1;jettySize=auto;html=1;entryX=0;entryY=0.5;entryDx=0;entryDy=0;fontSize=12;startSize=8;endSize=8;startArrow=classic;startFill=1;" edge="1" parent="WIyWlLk6GJQsqaUBKTNV-1" source="dTch9Wv_7yQYBZ383R5L-0" target="dTch9Wv_7yQYBZ383R5L-11">
          <mxGeometry relative="1" as="geometry">
            <Array as="points">
              <mxPoint x="100" y="554" />
            </Array>
          </mxGeometry>
        </mxCell>
        <mxCell id="dTch9Wv_7yQYBZ383R5L-0" value="Actor" style="shape=umlActor;verticalLabelPosition=bottom;verticalAlign=top;html=1;outlineConnect=0;" vertex="1" parent="WIyWlLk6GJQsqaUBKTNV-1">
          <mxGeometry x="90" y="200" width="30" height="60" as="geometry" />
        </mxCell>
        <mxCell id="dTch9Wv_7yQYBZ383R5L-3" value="" style="endArrow=classic;html=1;rounded=0;fontSize=12;startSize=8;endSize=8;curved=1;" edge="1" parent="WIyWlLk6GJQsqaUBKTNV-1" source="dTch9Wv_7yQYBZ383R5L-0">
          <mxGeometry width="50" height="50" relative="1" as="geometry">
            <mxPoint x="240" y="330" as="sourcePoint" />
            <mxPoint x="240" y="230" as="targetPoint" />
          </mxGeometry>
        </mxCell>
        <mxCell id="dTch9Wv_7yQYBZ383R5L-6" style="edgeStyle=none;curved=1;rounded=0;orthogonalLoop=1;jettySize=auto;html=1;entryX=0.5;entryY=0;entryDx=0;entryDy=0;fontSize=12;startSize=8;endSize=8;" edge="1" parent="WIyWlLk6GJQsqaUBKTNV-1" source="dTch9Wv_7yQYBZ383R5L-4" target="dTch9Wv_7yQYBZ383R5L-5">
          <mxGeometry relative="1" as="geometry" />
        </mxCell>
        <mxCell id="dTch9Wv_7yQYBZ383R5L-4" value="item1 vs item2" style="rounded=1;whiteSpace=wrap;html=1;" vertex="1" parent="WIyWlLk6GJQsqaUBKTNV-1">
          <mxGeometry x="240" y="210" width="120" height="40" as="geometry" />
        </mxCell>
        <mxCell id="dTch9Wv_7yQYBZ383R5L-8" style="edgeStyle=none;curved=1;rounded=0;orthogonalLoop=1;jettySize=auto;html=1;entryX=0.5;entryY=0;entryDx=0;entryDy=0;fontSize=12;startSize=8;endSize=8;" edge="1" parent="WIyWlLk6GJQsqaUBKTNV-1" source="dTch9Wv_7yQYBZ383R5L-5" target="dTch9Wv_7yQYBZ383R5L-7">
          <mxGeometry relative="1" as="geometry" />
        </mxCell>
        <mxCell id="dTch9Wv_7yQYBZ383R5L-5" value="item core feature extraction done by LLM agent" style="rounded=1;whiteSpace=wrap;html=1;" vertex="1" parent="WIyWlLk6GJQsqaUBKTNV-1">
          <mxGeometry x="240" y="310" width="120" height="50" as="geometry" />
        </mxCell>
        <mxCell id="dTch9Wv_7yQYBZ383R5L-10" style="edgeStyle=none;curved=1;rounded=0;orthogonalLoop=1;jettySize=auto;html=1;entryX=0.015;entryY=0.406;entryDx=0;entryDy=0;fontSize=12;startSize=8;endSize=8;exitX=1;exitY=0.5;exitDx=0;exitDy=0;entryPerimeter=0;" edge="1" parent="WIyWlLk6GJQsqaUBKTNV-1" source="dTch9Wv_7yQYBZ383R5L-7" target="dTch9Wv_7yQYBZ383R5L-9">
          <mxGeometry relative="1" as="geometry" />
        </mxCell>
        <mxCell id="dTch9Wv_7yQYBZ383R5L-7" value="search with core features as context using a crawler" style="rounded=1;whiteSpace=wrap;html=1;" vertex="1" parent="WIyWlLk6GJQsqaUBKTNV-1">
          <mxGeometry x="240" y="410" width="120" height="50" as="geometry" />
        </mxCell>
        <mxCell id="dTch9Wv_7yQYBZ383R5L-9" value="visualize the features on the website" style="rounded=1;whiteSpace=wrap;html=1;" vertex="1" parent="WIyWlLk6GJQsqaUBKTNV-1">
          <mxGeometry x="450" y="410" width="120" height="60" as="geometry" />
        </mxCell>
        <mxCell id="dTch9Wv_7yQYBZ383R5L-11" value="pass crawler and user query to the SONAR api for Q&amp;amp;A" style="rounded=1;whiteSpace=wrap;html=1;" vertex="1" parent="WIyWlLk6GJQsqaUBKTNV-1">
          <mxGeometry x="230" y="524" width="130" height="60" as="geometry" />
        </mxCell>
      </root>
    </mxGraphModel>
  </diagram>
  <diagram name="Copy of Page-1" id="70TkMTQi_mfTQLJgsfKs">
    <mxGraphModel dx="705" dy="782" grid="1" gridSize="10" guides="1" tooltips="1" connect="1" arrows="1" fold="1" page="1" pageScale="1" pageWidth="827" pageHeight="1169" math="0" shadow="0">
      <root>
        <mxCell id="2YF2QzlBY3f8NUC0iqYT-0" />
        <mxCell id="2YF2QzlBY3f8NUC0iqYT-1" parent="2YF2QzlBY3f8NUC0iqYT-0" />
        <mxCell id="OxuwpcA0ohZ2sZWE-4qK-11" value="" style="rounded=0;html=1;jettySize=auto;orthogonalLoop=1;fontSize=11;endArrow=block;endFill=0;endSize=8;strokeWidth=1;shadow=0;labelBackgroundColor=none;edgeStyle=orthogonalEdgeStyle;" edge="1" parent="2YF2QzlBY3f8NUC0iqYT-1" source="OxuwpcA0ohZ2sZWE-4qK-12" target="OxuwpcA0ohZ2sZWE-4qK-15">
          <mxGeometry relative="1" as="geometry" />
        </mxCell>
        <mxCell id="OxuwpcA0ohZ2sZWE-4qK-12" value="Lamp doesn&#39;t work" style="rounded=1;whiteSpace=wrap;html=1;fontSize=12;glass=0;strokeWidth=1;shadow=0;" vertex="1" parent="2YF2QzlBY3f8NUC0iqYT-1">
          <mxGeometry x="520" y="130" width="120" height="40" as="geometry" />
        </mxCell>
        <mxCell id="OxuwpcA0ohZ2sZWE-4qK-13" value="Yes" style="rounded=0;html=1;jettySize=auto;orthogonalLoop=1;fontSize=11;endArrow=block;endFill=0;endSize=8;strokeWidth=1;shadow=0;labelBackgroundColor=none;edgeStyle=orthogonalEdgeStyle;" edge="1" parent="2YF2QzlBY3f8NUC0iqYT-1" source="OxuwpcA0ohZ2sZWE-4qK-15" target="OxuwpcA0ohZ2sZWE-4qK-19">
          <mxGeometry y="20" relative="1" as="geometry">
            <mxPoint as="offset" />
          </mxGeometry>
        </mxCell>
        <mxCell id="OxuwpcA0ohZ2sZWE-4qK-14" value="No" style="edgeStyle=orthogonalEdgeStyle;rounded=0;html=1;jettySize=auto;orthogonalLoop=1;fontSize=11;endArrow=block;endFill=0;endSize=8;strokeWidth=1;shadow=0;labelBackgroundColor=none;" edge="1" parent="2YF2QzlBY3f8NUC0iqYT-1" source="OxuwpcA0ohZ2sZWE-4qK-15" target="OxuwpcA0ohZ2sZWE-4qK-16">
          <mxGeometry y="10" relative="1" as="geometry">
            <mxPoint as="offset" />
          </mxGeometry>
        </mxCell>
        <mxCell id="OxuwpcA0ohZ2sZWE-4qK-15" value="Lamp&lt;br&gt;plugged in?" style="rhombus;whiteSpace=wrap;html=1;shadow=0;fontFamily=Helvetica;fontSize=12;align=center;strokeWidth=1;spacing=6;spacingTop=-4;" vertex="1" parent="2YF2QzlBY3f8NUC0iqYT-1">
          <mxGeometry x="530" y="220" width="100" height="80" as="geometry" />
        </mxCell>
        <mxCell id="OxuwpcA0ohZ2sZWE-4qK-16" value="Plug in lamp" style="rounded=1;whiteSpace=wrap;html=1;fontSize=12;glass=0;strokeWidth=1;shadow=0;" vertex="1" parent="2YF2QzlBY3f8NUC0iqYT-1">
          <mxGeometry x="680" y="240" width="120" height="40" as="geometry" />
        </mxCell>
        <mxCell id="OxuwpcA0ohZ2sZWE-4qK-17" value="No" style="rounded=0;html=1;jettySize=auto;orthogonalLoop=1;fontSize=11;endArrow=block;endFill=0;endSize=8;strokeWidth=1;shadow=0;labelBackgroundColor=none;edgeStyle=orthogonalEdgeStyle;" edge="1" parent="2YF2QzlBY3f8NUC0iqYT-1" source="OxuwpcA0ohZ2sZWE-4qK-19" target="OxuwpcA0ohZ2sZWE-4qK-20">
          <mxGeometry x="0.3333" y="20" relative="1" as="geometry">
            <mxPoint as="offset" />
          </mxGeometry>
        </mxCell>
        <mxCell id="OxuwpcA0ohZ2sZWE-4qK-18" value="Yes" style="edgeStyle=orthogonalEdgeStyle;rounded=0;html=1;jettySize=auto;orthogonalLoop=1;fontSize=11;endArrow=block;endFill=0;endSize=8;strokeWidth=1;shadow=0;labelBackgroundColor=none;" edge="1" parent="2YF2QzlBY3f8NUC0iqYT-1" source="OxuwpcA0ohZ2sZWE-4qK-19" target="OxuwpcA0ohZ2sZWE-4qK-21">
          <mxGeometry y="10" relative="1" as="geometry">
            <mxPoint as="offset" />
          </mxGeometry>
        </mxCell>
        <mxCell id="OxuwpcA0ohZ2sZWE-4qK-19" value="Bulb&lt;br&gt;burned out?" style="rhombus;whiteSpace=wrap;html=1;shadow=0;fontFamily=Helvetica;fontSize=12;align=center;strokeWidth=1;spacing=6;spacingTop=-4;" vertex="1" parent="2YF2QzlBY3f8NUC0iqYT-1">
          <mxGeometry x="530" y="340" width="100" height="80" as="geometry" />
        </mxCell>
        <mxCell id="OxuwpcA0ohZ2sZWE-4qK-20" value="Repair Lamp" style="rounded=1;whiteSpace=wrap;html=1;fontSize=12;glass=0;strokeWidth=1;shadow=0;" vertex="1" parent="2YF2QzlBY3f8NUC0iqYT-1">
          <mxGeometry x="520" y="480" width="120" height="40" as="geometry" />
        </mxCell>
        <mxCell id="OxuwpcA0ohZ2sZWE-4qK-21" value="Replace Bulb" style="rounded=1;whiteSpace=wrap;html=1;fontSize=12;glass=0;strokeWidth=1;shadow=0;" vertex="1" parent="2YF2QzlBY3f8NUC0iqYT-1">
          <mxGeometry x="680" y="360" width="120" height="40" as="geometry" />
        </mxCell>
      </root>
    </mxGraphModel>
  </diagram>
</mxfile>
